<svg xmlns="http://www.w3.org/2000/svg" viewBox="0 0 512 512">
  <defs>
    <linearGradient id="bgGrad" x1="0%" y1="0%" x2="100%" y2="100%">
      <stop offset="0%" stop-color="#6C3AE0" />
      <stop offset="40%" stop-color="#4A00E0" />
      <stop offset="100%" stop-color="#00B4D8" />
    </linearGradient>
  </defs>
  <rect width="512" height="512" rx="120" fill="url(#bgGrad)" />
  <path d="M160 144h192c8.8 0 16 7.2 16 16v32c0 8.8-7.2 16-16 16H160c-8.8 0-16-7.2-16-16v-32c0-8.8 7.2-16 16-16zm0 96h192c8.8 0 16 7.2 16 16v32c0 8.8-7.2 16-16 16H160c-8.8 0-16-7.2-16-16v-32c0-8.8 7.2-16 16-16zm0 96h128c8.8 0 16 7.2 16 16v32c0 8.8-7.2 16-16 16H160c-8.8 0-16-7.2-16-16v-32c0-8.8 7.2-16 16-16z" fill="#FFFFFF" />
</svg>
